<svg xmlns="http://www.w3.org/2000/svg" viewBox="40 30 130 130">
  <!-- Head -->
  <circle cx="100" cy="100" r="60" fill="#87CEEB" />
  
  <!-- Left Sun Eye -->
  <circle cx="75" cy="85" r="15" fill="#FFD700">
    <!-- Sun Rays -->
    <animate attributeName="r" values="15;17;15" dur="2s" repeatCount="indefinite" />
  </circle>
  <path d="M60 70 L65 75 M85 70 L80 75 M60 95 L65 90 M85 95 L80 90" 
        stroke="#FFD700" stroke-width="3" stroke-linecap="round" />
  
  <!-- Right Sun Eye -->
  <circle cx="125" cy="85" r="15" fill="#FFD700">
    <!-- Sun Rays -->
    <animate attributeName="r" values="15;17;15" dur="2s" repeatCount="indefinite" />
  </circle>
  <path d="M110 70 L115 75 M135 70 L130 75 M110 95 L115 90 M135 95 L130 90" 
        stroke="#FFD700" stroke-width="3" stroke-linecap="round" />
  
  <!-- Cloud Mouth -->
  <path d="M70 120 Q100 140 130 120 Q115 130 100 130 Q85 130 70 120" 
        fill="white" stroke="#E6E6FA" stroke-width="2" />
  
  <!-- Friendly Rosy Cheeks -->
  <circle cx="65" cy="105" r="10" fill="#FFB6C1" opacity="0.3" />
  <circle cx="135" cy="105" r="10" fill="#FFB6C1" opacity="0.3" />
  
  <!-- Antenna -->
  <line x1="100" y1="40" x2="100" y2="20" stroke="#87CEEB" stroke-width="4" stroke-linecap="round" />
  <circle cx="100" cy="15" r="5" fill="#87CEEB">
    <animate attributeName="cy" values="15;12;15" dur="1.5s" repeatCount="indefinite" />
  </circle>
</svg>